<svg width="16" height="16" viewBox="0 0 16 16" fill="none" xmlns="http://www.w3.org/2000/svg">
<path d="M15 4.43363C15 3.79523 14.48 3.27523 13.8416 3.27523H2.1584C1.52 3.27523 1 3.79523 1 4.43363V5.08323H15V4.43363ZM1.0016 7.03043V11.5728C1.0016 12.2128 1.52 12.7328 2.16 12.7328H13.84C14.48 12.7328 15 12.2128 15 11.5728V7.03043H1.0016ZM5.2992 11.08C5.2992 11.128 5.2592 11.1664 5.2128 11.1664H2.72C2.6736 11.1664 2.6336 11.128 2.6336 11.08V10.2688C2.6336 10.2224 2.6736 10.1824 2.72 10.1824H5.2128C5.2592 10.1824 5.2992 10.2224 5.2992 10.2688V11.08Z" fill="#336CFB"/>
</svg>
