<svg width="16" height="16" viewBox="0 0 16 16" fill="none" xmlns="http://www.w3.org/2000/svg">
<g clip-path="url(#clip0_1_2569)">
<path d="M5.2112 4.46237C5.3184 4.68157 5.4336 4.87357 5.4784 5.10237C5.6032 5.73757 5.8896 6.30877 6.3184 6.78077C6.5904 7.07997 6.5744 7.38717 6.4816 7.69597C6.4016 7.96317 6.4256 8.15837 6.6032 8.36317C6.84 8.63837 7.0768 8.91197 7.4048 9.08637C7.784 9.28957 8.3152 9.25437 8.744 8.91997C9.0944 8.64637 9.3568 8.29597 9.6 7.92797C9.6432 7.86397 9.6256 7.80797 9.6128 7.74717C9.5968 7.67197 9.5824 7.59677 9.5664 7.52317C9.5008 7.22077 9.5904 6.98077 9.7968 6.74397C10.2096 6.26877 10.4848 5.71517 10.6128 5.09597C10.6592 4.87197 10.7776 4.68637 10.9024 4.48797C10.8992 4.56477 10.9024 4.64317 10.8912 4.71997C10.7728 5.51037 10.8624 6.29117 11.0032 7.06557C11.0624 7.38397 11.1664 7.69757 11.2944 7.99997C11.3696 8.17597 11.5488 8.17277 11.6864 8.22877C12.184 8.42717 12.6672 8.65117 13.1248 8.93277C13.5392 9.18717 13.7488 9.57437 13.896 10.0112C14.1264 10.6928 14.328 11.3824 14.4656 12.0912C14.616 12.8688 14.6752 13.6496 14.6304 14.44C14.6096 14.7856 14.392 14.992 14.1024 15.1008C13.416 15.3584 12.7088 15.5584 11.9888 15.7056C11.5648 15.792 11.1392 15.8576 10.7168 15.9392C10.3968 16.0016 10.0832 15.9936 9.7648 15.9952C8.9264 16.0016 8.0864 15.984 7.248 16.0016C6.4416 16.0176 5.6496 15.9328 4.856 15.784C4.0384 15.632 3.232 15.4496 2.4448 15.1888C2.2224 15.1152 2.0032 15.032 1.7872 14.9408C1.4528 14.8 1.4 14.4992 1.376 14.1984C1.3392 13.7296 1.424 13.2656 1.4736 12.8032C1.5408 12.1808 1.648 11.5632 1.8016 10.9552C1.9456 10.384 2.12 9.82077 2.4336 9.31997C2.6848 8.91837 3.0912 8.69757 3.528 8.53757C3.8912 8.40637 4.256 8.27997 4.6192 8.14717C4.7024 8.11677 4.7616 8.06397 4.8 7.96797C5.0176 7.40957 5.1424 6.83517 5.1968 6.23677C5.2448 5.71837 5.2672 5.20477 5.1904 4.68797C5.1824 4.62237 5.168 4.55197 5.2112 4.46237ZM7.5616 13.7136C7.5616 13.8608 7.568 13.9824 7.56 14.104C7.552 14.2256 7.5904 14.2784 7.72 14.272C7.912 14.264 8.104 14.264 8.296 14.272C8.4272 14.2784 8.4608 14.2208 8.4576 14.1024C8.4512 13.872 8.4624 13.6416 8.4528 13.4112C8.448 13.2736 8.488 13.2144 8.6368 13.2208C8.8672 13.2304 9.0976 13.2176 9.328 13.2256C9.4544 13.2304 9.5008 13.1792 9.4992 13.0576C9.496 12.8656 9.4912 12.6736 9.5008 12.4832C9.5088 12.3472 9.4432 12.3216 9.328 12.3232C9.1104 12.328 8.8928 12.3248 8.6752 12.328C8.5168 12.3312 8.4416 12.2704 8.4512 12.0992C8.464 11.8768 8.4528 11.6512 8.4576 11.4272C8.4592 11.3216 8.424 11.2784 8.312 11.2816C8.1136 11.288 7.9152 11.2864 7.7168 11.2816C7.6048 11.28 7.5552 11.3168 7.5584 11.4368C7.5648 11.6672 7.552 11.8976 7.5632 12.128C7.5696 12.2752 7.5024 12.3216 7.3712 12.3216C7.2048 12.3216 7.0384 12.3232 6.872 12.3248C6.5152 12.3296 6.5152 12.3312 6.5168 12.6944C6.5184 13.224 6.5184 13.2208 7.0448 13.2256C7.2096 13.2272 7.4192 13.1536 7.5248 13.2608C7.6336 13.3648 7.544 13.576 7.5616 13.7136ZM5.8848 3.73597C5.6672 3.73597 5.4496 3.73117 5.232 3.73757C5.0864 3.74237 5.0272 3.68797 5.0224 3.53757C5.0096 3.16637 4.984 2.79197 5.0352 2.42557C5.1584 1.55357 5.6192 0.57757 6.768 0.22717C7.2848 0.0687698 7.8048 -0.0496302 8.3376 0.0191698C9.3392 0.14717 10.2208 0.51997 10.7104 1.47517C11.0256 2.08797 11.024 2.76797 10.9968 3.44157C10.9952 3.50237 11.0048 3.56477 10.8896 3.54237C10.8 3.52477 10.7856 3.64157 10.7712 3.70877C10.7488 3.81437 10.7184 3.83037 10.6176 3.77757C10.1808 3.54877 9.8944 3.19197 9.7184 2.74237C9.6704 2.61917 9.6496 2.59677 9.5264 2.68317C8.728 3.23997 7.84 3.55197 6.8752 3.67997C6.5456 3.72477 6.216 3.73917 5.8848 3.73597Z" fill="#DBDDE0"/>
</g>
<defs>
<clipPath id="clip0_1_2569">
<rect width="16" height="16" fill="white"/>
</clipPath>
</defs>
</svg>
