<svg width="16" height="16" viewBox="0 0 16 16" fill="none" xmlns="http://www.w3.org/2000/svg">
<g clip-path="url(#clip0_1_2583)">
<path d="M15.6465 6.80001C15.0801 6.35361 14.0225 6.73441 13.1985 7.64961C12.4289 7.43521 11.7457 7.48801 11.1633 7.81601C10.0481 8.44481 9.62566 9.89121 9.46886 10.9904C9.44486 11.16 9.42246 11.3328 9.39846 11.5056C9.14886 13.408 8.91206 15.2064 6.65606 15.2064C6.61926 15.2064 6.58246 15.2064 6.54406 15.2048C5.90406 15.1888 5.44326 14.9904 5.13606 14.5968C4.56966 13.8704 4.66726 12.6832 4.73926 12.1904C4.96326 12.0896 5.12166 11.8688 5.12966 11.608L5.16326 10.6336L6.35846 10.2784C6.50726 10.2336 6.62246 10.1392 6.70566 10.0224C6.92006 10.0704 7.18726 10.0592 7.37606 9.94081C7.70726 9.73441 8.19046 9.33761 8.79206 8.58721C9.44966 7.76641 9.61126 7.10561 9.62726 6.67681C9.63526 6.37121 9.42246 6.06081 9.26406 5.97441C9.10566 5.88801 9.07686 6.04961 9.10726 6.35361C9.15206 6.81121 9.08006 7.50721 8.48966 8.26401C8.47846 8.27681 8.46886 8.28641 8.45926 8.29921L8.46406 8.26561C8.60486 8.04801 8.72646 7.81921 8.81926 7.57441C9.77926 5.03201 7.70406 2.06561 7.61446 1.94081C7.59526 1.91361 7.56966 1.89601 7.54406 1.87521C7.60326 1.73921 7.58886 1.61601 7.48966 1.55201C7.33446 1.45121 7.09126 1.14881 6.95046 0.876809L6.70086 0.400008C6.56166 0.129608 6.26726 0.0816085 6.04646 0.292808L5.42726 0.894409C5.20486 1.10561 5.24806 1.39201 5.51846 1.53441L5.95526 1.75841C6.22566 1.90081 6.52166 2.15681 6.61766 2.33121C6.68966 2.46081 6.85606 2.48001 7.02726 2.39201C7.20326 2.64801 8.91206 5.24161 8.12806 7.31681C8.09606 7.40161 8.04646 7.48001 8.00486 7.56161L8.00006 7.56321C7.95206 7.55201 7.90566 7.53441 7.85606 7.53441C7.73286 7.53441 7.61766 7.57121 7.52166 7.63201L7.66726 7.77121C7.57926 7.87841 7.52006 8.00961 7.52006 8.15841C7.52006 8.19521 7.52806 8.23041 7.53446 8.26561C7.25926 8.56641 6.91526 8.83521 6.49926 9.06401C6.34566 8.97761 6.16006 8.95041 5.97926 9.00481L4.52326 9.43681L2.96486 8.94401C2.78726 8.88801 2.60166 8.91201 2.44966 8.99521C1.70726 8.55521 1.20166 7.99361 0.944056 7.31681C0.123256 5.14241 2.04166 2.39681 2.06086 2.36961C2.06246 2.36481 2.06246 2.36001 2.06726 2.35521C2.06726 2.35521 2.11206 2.39841 2.16806 2.44801C2.22406 2.50081 2.34566 2.40161 2.44166 2.22721C2.53606 2.05121 2.83526 1.79521 3.10566 1.65441L3.54086 1.42881C3.81286 1.28801 3.85446 1.00161 3.63366 0.788809L3.01286 0.188808C2.79206 -0.0239915 2.50086 0.0240085 2.35846 0.296008L2.11046 0.772808C1.96806 1.04481 1.72646 1.34561 1.57126 1.44801C1.41286 1.54721 1.34406 1.68321 1.41286 1.74721L1.53926 1.86561C1.50886 1.88641 1.48166 1.90881 1.45766 1.94081C1.36806 2.06561 -0.707144 5.03201 0.252856 7.57441C0.576056 8.42561 1.19686 9.11841 2.10566 9.64641C2.12966 9.90081 2.30406 10.128 2.56326 10.2112L3.83526 10.6128L3.80166 11.5616C3.79686 11.7584 3.87846 11.9376 4.00966 12.0656C3.92166 12.6528 3.80486 14.0896 4.55206 15.048C4.99846 15.6208 5.66246 15.9216 6.52646 15.9424C6.57286 15.9456 6.61766 15.9456 6.66246 15.9456C9.56006 15.9456 9.87686 13.5408 10.1313 11.6032C10.1537 11.4336 10.1761 11.264 10.2001 11.096C10.3889 9.77281 10.8593 8.83681 11.5265 8.46081C11.8609 8.27041 12.2625 8.21761 12.7201 8.29761C12.1457 9.24641 12.0737 10.2368 12.5969 10.6528C13.2033 11.1328 14.3777 10.6592 15.2193 9.59521C16.0609 8.53121 16.2513 7.28001 15.6465 6.80001ZM8.35366 8.42561C8.30406 8.48481 8.25446 8.54881 8.20646 8.60321C8.25446 8.54241 8.30246 8.48161 8.34726 8.41921L8.35366 8.42561ZM14.1377 8.71521C13.8225 9.11521 13.3825 9.29281 13.1553 9.11201C12.9889 8.98081 12.9841 8.69441 13.1153 8.39361C13.2353 8.43201 13.3569 8.47361 13.4817 8.52641C13.6721 8.60641 13.8865 8.52001 13.9665 8.33121C14.0465 8.14401 13.9585 7.92641 13.7697 7.84641C13.7137 7.82241 13.6609 7.80481 13.6049 7.78561C13.8625 7.59681 14.1329 7.53921 14.2945 7.66881C14.5233 7.84961 14.4513 8.31841 14.1377 8.71521Z" fill="#52575C"/>
</g>
<defs>
<clipPath id="clip0_1_2583">
<rect width="16" height="16" fill="white"/>
</clipPath>
</defs>
</svg>
